HIERARCHY
ROOT Hips
{
	OFFSET	0.00	0.00	0.00
	CHANNELS 6 Xposition Yposition Zposition Zrotation Xrotation Yrotation
	JOINT LeftUpLeg
	{
		OFFSET	 0.126116	-0.014019	-0.065224
		CHANNELS 3 Zrotation Xrotation Yrotation
		JOINT LeftLeg
		{
			OFFSET	 0.000000	 0.000000	 0.569914
			CHANNELS 3 Zrotation Xrotation Yrotation
			JOINT LeftFoot
			{
				OFFSET	 0.000000	 0.000000	 0.544423
				CHANNELS 3 Zrotation Xrotation Yrotation
				JOINT LeftToeBase
				{
					OFFSET	 0.000000	 0.000000	 0.207117
					CHANNELS 3 Zrotation Xrotation Yrotation
					End Site
					{
						OFFSET	 0.000000	 0.000000	 0.207117
					}
				}
			}
		}
	}
	JOINT RightUpLeg
	{
		OFFSET	-0.124023	-0.008373	-0.065224
		CHANNELS 3 Zrotation Xrotation Yrotation
		JOINT RightLeg
		{
			OFFSET	 0.000000	 0.000000	 0.570047
			CHANNELS 3 Zrotation Xrotation Yrotation
			JOINT RightFoot
			{
				OFFSET	 0.000000	 0.000000	 0.544354
				CHANNELS 3 Zrotation Xrotation Yrotation
				JOINT RightToeBase
				{
					OFFSET	 0.000000	 0.000000	 0.207540
					CHANNELS 3 Zrotation Xrotation Yrotation
					End Site
					{
						OFFSET	 0.000000	 0.000000	 0.207540
					}
				}
			}
		}
	}
	JOINT Spine
	{
		OFFSET	 0.000184	-0.007763	 0.117403
		CHANNELS 3 Zrotation Xrotation Yrotation
		JOINT Spine1
		{
			OFFSET	 0.000000	 0.000000	 0.137269
			CHANNELS 3 Zrotation Xrotation Yrotation
			JOINT Spine2
			{
				OFFSET	 0.000000	 0.000000	 0.156879
				CHANNELS 3 Zrotation Xrotation Yrotation
				JOINT LeftShoulder
				{
					OFFSET	 0.080501	-0.002496	 0.160144
					CHANNELS 3 Zrotation Xrotation Yrotation
					JOINT LeftArm
					{
						OFFSET	 0.000000	 0.000000	 0.164363
						CHANNELS 3 Zrotation Xrotation Yrotation
						JOINT LeftForeArm
						{
							OFFSET	 0.000000	 0.000000	 0.364576
							CHANNELS 3 Zrotation Xrotation Yrotation
							JOINT LeftHand
							{
								OFFSET	 0.000000	 0.000000	 0.360812
								CHANNELS 3 Zrotation Xrotation Yrotation
								JOINT LeftHandIndex1
								{
									OFFSET	 0.000000	 0.000000	 0.086006
									CHANNELS 3 Zrotation Xrotation Yrotation
									JOINT LeftHandIndex2
									{
										OFFSET	 0.000000	 0.000000	 0.047236
										CHANNELS 3 Zrotation Xrotation Yrotation
										JOINT LeftHandIndex3
										{
											OFFSET	-0.004284	-0.000551	 0.038166
											CHANNELS 3 Zrotation Xrotation Yrotation
											End Site
											{
												OFFSET	-0.004284	-0.000551	 0.038166
											}
										}
									}
								}
							}
						}
					}
				}
				JOINT Neck
				{
					OFFSET	 0.000000	 0.000000	 0.176489
					CHANNELS 3 Zrotation Xrotation Yrotation
					JOINT Head
					{
						OFFSET	 0.000000	-0.001747	 0.077940
						CHANNELS 3 Zrotation Xrotation Yrotation
						End Site
						{
							OFFSET	 0.000000	-0.001747	 0.077940
						}
					}
				}
				JOINT RightShoulder
				{
					OFFSET	-0.080363	 0.000306	 0.159706
					CHANNELS 3 Zrotation Xrotation Yrotation
					JOINT RightArm
					{
						OFFSET	 0.000000	 0.000000	 0.164196
						CHANNELS 3 Zrotation Xrotation Yrotation
						JOINT RightForeArm
						{
							OFFSET	 0.000000	 0.000000	 0.365611
							CHANNELS 3 Zrotation Xrotation Yrotation
							JOINT RightHand
							{
								OFFSET	 0.000000	 0.000000	 0.360648
								CHANNELS 3 Zrotation Xrotation Yrotation
								JOINT RightHandIndex1
								{
									OFFSET	 0.000000	 0.000000	 0.069977
									CHANNELS 3 Zrotation Xrotation Yrotation
									JOINT RightHandIndex2
									{
										OFFSET	 0.000000	 0.000000	 0.052305
										CHANNELS 3 Zrotation Xrotation Yrotation
										JOINT RightHandIndex3
										{
											OFFSET	 0.009002	-0.000782	 0.042196
											CHANNELS 3 Zrotation Xrotation Yrotation
											End Site
											{
												OFFSET	 0.009002	-0.000782	 0.042196
											}
										}
									}
								}
							}
						}
					}
				}
			}
		}
	}
}
MOTION
Frames:    8
Frame Time: 0.03333334
 0.012865	 0.041454	 1.200808	 5.373724	-0.758412	-2.746941	 3.208103	-11.890820	-172.902500	 1.145424	-39.209300	 0.501132	 55.887930	 81.658160	-60.172410	-2.368974	 31.686460	-0.071536	-10.478010	-31.993590	-176.025000	 11.287280	-50.227540	 9.313773	 24.546910	 79.746220	-21.256420	 2.358956	 33.001590	 0.103265	-7.987998	 8.224929	 1.927057	-2.030499	 2.090882	-1.308244	 3.090093	-2.599259	 1.542083	-94.044390	 58.970340	 175.161600	 18.120300	 36.056280	-36.489150	-1.974624	-0.043567	-0.895457	-0.867029	-19.344990	-8.388676	-4.867199	 19.318850	-2.795918	-3.873650	 21.573420	 2.194753	-4.805133	 5.582328	 0.144814	-0.052615	-5.095004	 0.211734	 1.019623	 1.609346	 2.639778	 89.740690	 61.713770	 179.900900	-19.805040	 53.106590	 11.837990	-1.556500	-1.436894	 7.826102	-4.611676	-4.263400	 0.453414	 6.283512	 24.063860	-0.544440	 1.982500	 43.904360	-7.079386	 0.689008	 23.557730	 3.486617
 0.011919	 0.023058	 1.199676	 5.937083	-0.229562	-2.785853	 2.704901	-11.460560	-173.038900	 1.375720	-39.039670	 0.644379	 58.405020	 82.059070	-62.851010	-2.368001	 31.845190	-0.075146	-12.186670	-33.700990	-176.439100	 11.597220	-47.664830	 9.197569	 38.999900	 82.357040	-36.625640	 2.359056	 32.986760	 0.102920	-8.943728	 7.805011	 1.752485	-2.031141	 2.196581	-1.105813	 2.873089	-3.025195	 1.440017	-94.183870	 58.993100	 174.861000	 17.822500	 34.823860	-37.163860	-2.428660	-0.035050	-1.098956	-0.769217	-19.937280	-8.995851	-4.862283	 19.444380	-2.804173	-3.865754	 21.674080	 2.186720	-4.803360	 5.603262	 0.143586	-0.023918	-5.115923	 0.252844	 0.883385	 1.413857	 2.547079	 89.686590	 61.811850	 179.770900	-19.440710	 53.708220	 10.232180	-1.748070	-1.557834	 8.527480	-4.624337	-4.248864	 0.264576	 6.269685	 23.084210	-0.558223	 2.095379	 42.945950	-7.179261	 0.898973	 22.617260	 3.383780
 0.010041	-0.031698	 1.195888	 6.462204	 0.757281	-3.348656	 2.260696	-8.927708	-173.017800	 1.628766	-37.613300	 0.778893	 66.788150	 83.087750	-71.398280	-2.362835	 32.659770	-0.093797	-13.248020	-36.537640	-176.763300	 11.101180	-38.277760	 7.440980	 57.079620	 82.124930	-56.514660	 2.358307	 33.098380	 0.105507	-10.718280	 6.708935	 1.854166	-1.974578	 3.296605	-0.560838	 2.302275	-4.188652	 1.075484	-94.418420	 58.975860	 174.363800	 16.079170	 31.661310	-39.125920	-4.242215	 0.000905	-1.603498	-1.343442	-21.656060	-8.471456	-4.837388	 19.988290	-2.821434	-3.838509	 22.019270	 2.159050	-4.784479	 5.825397	 0.130538	 0.006711	-5.223858	 0.329208	 0.369908	 0.997274	 2.462094	 89.506630	 62.002730	 179.334600	-18.230420	 54.894000	 6.868572	-2.945626	-1.625587	 8.644953	-5.232471	-4.272526	-1.224309	 6.220602	 20.313220	-0.658188	 2.375537	 40.409380	-7.424566	 1.512789	 19.782030	 3.099959
 0.006317	-0.101949	 1.187739	 6.812318	 1.044241	-3.863169	 1.718333	-4.488154	-173.326600	 1.902247	-35.477840	 0.899474	 68.106090	 83.951810	-72.771920	-2.340673	 35.646100	-0.164509	-12.340120	-37.218620	-176.557800	 10.477140	-26.079190	 4.990708	 70.298570	 80.455510	-70.975070	 2.336859	 35.896320	 0.172308	-12.971060	 6.213084	 2.014506	-1.811236	 4.660804	 0.020040	 1.504262	-5.622320	 0.578125	-94.539310	 58.905960	 174.117800	 13.322110	 29.226920	-40.766170	-5.549109	 0.053638	-2.228587	-2.630457	-23.655510	-8.757411	-4.840893	 20.471690	-2.985402	-3.795077	 22.563070	 2.114940	-4.732652	 6.431533	 0.094533	 0.094053	-5.380924	 0.354382	-0.318360	 0.592541	 2.103045	 89.366640	 61.985740	 178.997300	-16.028780	 55.577820	 3.100198	-4.356298	-1.280948	 7.248311	-5.479379	-5.337008	-3.420995	 6.166182	 16.686510	-0.701858	 2.824679	 35.817420	-7.808755	 2.256661	 16.180540	 2.791794
-0.000683	-0.163629	 1.175046	 7.170488	 0.852271	-3.435574	 1.052407	-0.463303	-174.707900	 2.282017	-34.526910	 1.093793	 41.076130	 83.034880	-45.489470	-2.253299	 43.496300	-0.373678	-11.411820	-40.136900	-177.135000	 8.948725	-22.397740	 3.729087	 26.419550	 74.931850	-25.536220	 2.339359	 35.600130	 0.165061	-15.329400	 6.097479	 1.503896	-1.443745	 6.057984	 0.476153	 0.521587	-6.797590	-0.034247	-94.499740	 59.253540	 174.144500	 11.196920	 28.507920	-42.153240	-6.506085	 0.120126	-2.840090	-4.446232	-26.060070	-10.038510	-4.882169	 20.635710	-3.275096	-3.761536	 22.977740	 2.080884	-4.662014	 7.249335	 0.044996	 0.204335	-5.479795	 0.267565	-0.989568	 0.455526	 1.850571	 89.355340	 61.589630	 178.984600	-14.224610	 55.672260	-1.967708	-4.974126	-1.916052	 10.296230	-5.608480	-7.184423	-4.829605	 6.211514	 13.440500	-0.292040	 3.052863	 33.203370	-7.998788	 2.876847	 13.049070	 2.567133
-0.009951	-0.234308	 1.161029	 8.124207	-0.028808	-2.288373	 1.242281	 5.010993	-177.523200	 0.239132	-32.571980	-0.061149	 12.261830	 75.051470	-13.367720	-2.004233	 55.081210	-0.790219	-7.661523	-42.438140	-176.471900	 6.241388	-22.865100	 2.731217	 0.860598	 61.898010	 5.659590	 2.335644	 36.038700	 0.175801	-18.112050	 6.378305	 0.220875	-1.215436	 7.696313	 1.105373	-0.706376	-7.628515	-0.944814	-94.406610	 59.139740	 174.362800	 9.756582	 27.695190	-43.451500	-7.869941	 0.212988	-3.493076	-5.607335	-26.523090	-10.158190	-4.895866	 20.872140	-3.433265	-3.738776	 23.256540	 2.057779	-4.581132	 8.173880	-0.012357	 0.343624	-5.428682	 0.275533	-1.824343	 0.641801	 2.058025	 89.250070	 61.411350	 178.742400	-12.781510	 55.405020	-5.284238	-4.861701	-2.160348	 12.272740	-5.746359	-9.193988	-4.677277	 6.324988	 10.368990	 0.301078	 3.267209	 30.555190	-8.173529	 3.363719	 10.516880	 2.412648
-0.019020	-0.310325	 1.151190	 9.867865	-0.902559	-1.125359	 1.137104	 11.479110	 179.382700	 0.955927	-28.006760	 0.283259	 3.188271	 57.099660	-1.647319	-1.063148	 70.617990	-1.940416	-8.214613	-40.954080	-177.906000	 7.651978	-22.699650	 3.265355	-4.254441	 49.938980	 11.865710	 2.345656	 34.821160	 0.146221	-20.961570	 6.472785	-0.698396	-1.444772	 8.904437	 0.674571	-2.205815	-8.033421	-1.377497	-94.272900	 59.246800	 174.632700	 9.598313	 27.236050	-44.022050	-8.510990	 0.312921	-4.105202	-5.878138	-25.593630	-10.705330	-4.832500	 21.225030	-3.176712	-3.686934	 23.883920	 2.005164	-4.517978	 8.886759	-0.057572	 0.404630	-5.336012	 0.253130	-2.843599	 1.016388	 2.044327	 89.043560	 60.978090	 178.280400	-11.753020	 54.589160	-7.200644	-3.327673	-1.989136	 13.706350	-4.474195	-10.907690	-2.951214	 6.364555	 8.636447	 0.484732	 3.388015	 28.974840	-8.270203	 3.631776	 9.097969	 2.336157
-0.030355	-0.403482	 1.143286	 9.649909	-1.499585	 0.273117	 10.994190	 15.092280	 171.604500	 1.071650	-28.506320	 0.343123	 1.160265	 37.112190	 9.052888	-2.041295	 53.828680	-0.735624	-10.898750	-37.306770	 177.741100	 5.907705	-24.272130	 2.750364	-3.075215	 47.896570	 12.957320	 2.369864	 31.275900	 0.063754	-22.570320	 6.637671	-1.625892	-1.819762	 8.568201	 0.054359	-3.658345	-7.769402	-1.913229	-94.078990	 59.841080	 174.961900	 10.260970	 28.227700	-43.114590	-7.747215	 0.442265	-4.837535	-5.766195	-25.436280	-11.356780	-4.756194	 21.591200	-2.835893	-3.608334	 24.815030	 1.925429	-4.455634	 9.582877	-0.102589	 0.318946	-5.385607	 0.175589	-4.262090	 1.204648	 2.048526	 89.031020	 60.265930	 178.292100	-11.509930	 53.512050	-9.292574	-0.736307	-1.798172	 16.767700	-1.964656	-13.703060	-0.785461	 6.402159	 9.398443	 0.630158	 3.345753	 29.535040	-8.236538	 3.631135	 9.101398	 2.336336
